:SAMPLES-PER-SECOND 30
:FULLY-SPECIFIED
:DEGREES
403
root  1.36139 34.5734 28.6193 6.36702 12.6515 -0.883213
LeftUpLeg  -12.9219 6.07342 3.54019
LeftLeg  8.66884 -1.40615 -0.123689
LeftFoot  6.60482 0.0169512 -0.157076
LeftToes  -18.9491 2.60077e-006 -1.42232e-007
Spine  1.78678 3.1342 -1.98317
Spine1  3.21124 6.45327 -3.94644
RightShoulder  0.0501667 5.25477 2.47505
RightArm  -14.1924 -16.2256 61.6686
RightForeArm  115.351 79.8033 97.2656
RightHand  -0.774694 6.66478 -12.8882
LeftShoulder1  0.0255238 2.07123 -9.81157
LeftArm  -22.2736 12.5231 -66.642
LeftForeArm  25.542 -27.0894 -5.16745
LeftHand  0.122433 2.45811 5.25491
HEad  -9.19845 -29.159 4.69449
RightUpLeg  -7.59207 -8.53207 -1.5149
RightLeg  8.44597 0.516769 0.0444658
RightFoot  2.17384 0.0156651 0.0411226
RightToes  -31.4345 -0.152915 -0.262178
404
root  1.34009 34.5765 28.589 6.4146 12.1521 -0.904327
LeftUpLeg  -12.9582 6.16711 3.59386
LeftLeg  8.68576 -1.00685 -0.0891554
LeftFoot  6.65894 0.0136511 -0.110794
LeftToes  -19.0278 2.60077e-006 -1.42232e-007
Spine  1.75014 3.13502 -1.98432
Spine1  3.13641 6.45802 -3.95251
RightShoulder  0.0510738 5.34163 2.07857
RightArm  -14.1218 -14.6419 62.3229
RightForeArm  114.086 79.8251 96.2289
RightHand  -0.820631 7.2929 -12.4645
LeftShoulder1  0.0255084 1.95371 -9.85524
LeftArm  -21.7627 12.48 -66.4276
LeftForeArm  25.6772 -26.5649 -5.05074
LeftHand  0.116832 2.52158 4.79803
HEad  -8.53435 -28.8395 4.41487
RightUpLeg  -7.75476 -8.52275 -1.46309
RightLeg  8.41997 0.986569 0.0831523
RightFoot  2.27207 0.0145558 0.0614413
RightToes  -31.3934 -0.15252 -0.261628
405
root  1.31566 34.5772 28.5662 6.40896 11.622 -0.925104
LeftUpLeg  -12.9842 6.3819 3.65605
LeftLeg  8.83182 -0.707476 -0.0647806
LeftFoot  6.62678 0.0109585 -0.0740771
LeftToes  -19.0567 2.60077e-006 -1.42232e-007
Spine  1.774 3.20728 -1.98826
Spine1  3.17662 6.61107 -3.96728
RightShoulder  0.051862 5.4538 1.6817
RightArm  -13.8531 -12.954 63.1856
RightForeArm  112.939 79.8412 95.3377
RightHand  -0.862037 7.72449 -12.357
LeftShoulder1  0.0253088 1.73841 -9.90367
LeftArm  -20.9993 12.4687 -66.2289
LeftForeArm  24.3464 -25.9094 -4.90677
LeftHand  0.1212 2.54084 4.99022
HEad  -8.46923 -28.7051 4.43687
RightUpLeg  -7.88408 -8.33209 -1.42233
RightLeg  8.4601 1.32954 0.112507
RightFoot  2.32689 0.0136707 0.0778475
RightToes  -31.3071 -0.15205 -0.261004
406
root  1.29257 34.5778 28.5598 6.38602 11.1657 -0.950985
LeftUpLeg  -12.9116 6.63012 3.71783
LeftLeg  8.8381 -0.490502 -0.0452812
LeftFoot  6.61807 0.0089002 -0.0473313
LeftToes  -19.164 2.60077e-006 -1.42232e-007
Spine  1.82175 3.29724 -1.99091
Spine1  3.2705 6.80098 -3.96974
RightShoulder  0.0525024 5.56989 1.21401
RightArm  -13.7465 -11.3392 64.4374
RightForeArm  111.708 79.8583 94.1987
RightHand  -0.873612 7.9396 -12.1785
LeftShoulder1  0.0249607 1.29192 -9.85823
LeftArm  -19.9706 13.1496 -66.0841
LeftForeArm  22.0322 -26.6371 -5.06727
LeftHand  0.137172 2.48149 5.94037
HEad  -8.64558 -28.5843 4.5319
RightUpLeg  -7.96096 -8.49037 -1.37755
RightLeg  8.50482 1.95891 0.166638
RightFoot  2.36533 0.0120037 0.105952
RightToes  -31.4159 -0.151498 -0.260299
407
root  1.26071 34.58 28.5653 6.34779 10.8655 -0.974315
LeftUpLeg  -12.8259 6.76106 3.80507
LeftLeg  8.83557 -0.311812 -0.0291428
LeftFoot  6.64961 0.00714938 -0.0254667
LeftToes  -19.3955 2.60077e-006 -1.42232e-007
Spine  1.87863 3.33756 -1.98959
Spine1  3.38093 6.89209 -3.97029
RightShoulder  0.0529676 5.74302 0.983982
RightArm  -13.6663 -9.8113 65.5933
RightForeArm  110.669 79.8707 92.9856
RightHand  -0.939128 8.32477 -12.4903
LeftShoulder1  0.0244997 0.948626 -9.72771
LeftArm  -18.8466 14.1708 -66.0755
LeftForeArm  21.1798 -29.0748 -5.62021
LeftHand  0.141921 2.37515 6.44923
HEad  -8.75284 -28.3777 4.54077
RightUpLeg  -8.00652 -8.63472 -1.31059
RightLeg  8.60312 2.40731 0.208616
RightFoot  2.31537 0.0109793 0.123632
RightToes  -31.0958 -0.150856 -0.25951
